<?xml version="1.0" encoding="UTF-8" standalone="no"?>
<!-- Generator: Adobe Illustrator 25.2.1, SVG Export Plug-In . SVG Version: 6.00 Build 0)  -->

<svg
   version="1.1"
   id="Capa_1"
   x="0px"
   y="0px"
   viewBox="0 0 314.99999 171"
   xml:space="preserve"
   sodipodi:docname="wall.svg"
   inkscape:version="1.1.1 (c3084ef, 2021-09-22)"
   inkscape:export-filename="/Users/n26/Downloads/AdobeStock_229514041_Converti.png"
   inkscape:export-xdpi="96"
   inkscape:export-ydpi="96"
   width="315"
   height="171"
   xmlns:inkscape="http://www.inkscape.org/namespaces/inkscape"
   xmlns:sodipodi="http://sodipodi.sourceforge.net/DTD/sodipodi-0.dtd"
   xmlns="http://www.w3.org/2000/svg"
   xmlns:svg="http://www.w3.org/2000/svg"><defs
   id="defs98461">
	
	

		
		
		
	
			
			
			
			
		<clipPath
   clipPathUnits="userSpaceOnUse"
   id="clipPath133702"><rect
     style="fill:#808080;stroke-width:0.737303"
     id="rect133704"
     width="423.26001"
     height="425.45367"
     x="1.9300003"
     y="-0.87366486" /></clipPath>
			
			
			
			
		
				
			
					
					
					
					
					
					
					
					
					
					
					
				
				
			
					
					
					
					
					
					
					
					
					
					
					
				
				
				
				
			
					
					
					
					
					
					
					
					
					
				
						
						
						
						
						
						
						
						
						
						
						
						
						
						
						
						
						
						
						
						
						
						
						
						
						
						
						
						
						
						
						
						
						
						
						
						
						
						
						
						
						
						
						
						
						
						
						
						
						
						
						
						
						
						
						
						
						
						
						
						
						
						
						
						
						
						
						
						
						
						
						
						
						
						
						
						
						
						
					</defs><sodipodi:namedview
   id="namedview98459"
   pagecolor="#ffffff"
   bordercolor="#666666"
   borderopacity="1.0"
   inkscape:pageshadow="2"
   inkscape:pageopacity="0.0"
   inkscape:pagecheckerboard="false"
   showgrid="false"
   inkscape:zoom="4.9331907"
   inkscape:cx="11.148971"
   inkscape:cy="102.77324"
   inkscape:window-width="1440"
   inkscape:window-height="872"
   inkscape:window-x="0"
   inkscape:window-y="0"
   inkscape:window-maximized="1"
   inkscape:current-layer="layer7"
   width="4235.2px"
   inkscape:showpageshadow="true"
   showborder="true"
   inkscape:snap-global="true" />
<style
   type="text/css"
   id="style93340">
	.st0{fill:#E7AEB9;}
	.st1{fill:#EAC3C5;}
	.st2{fill:#FFFFFF;}
	.st3{fill:#CF5F89;}
	.st4{fill:#954167;}
	.st5{fill:#32323C;}
	.st6{fill:#28212B;}
	.st7{opacity:0.1;fill:#FFFFFF;}
	.st8{fill:#2A2932;}
	.st9{fill:#221D24;}
	.st10{fill:#726370;}
	.st11{fill:#8F7F8A;}
	.st12{fill:#454453;}
	.st13{fill:#595668;}
	.st14{fill:#25242C;}
	.st15{fill:#4B4957;}
	.st16{fill:#282830;}
	.st17{fill:#777776;}
	.st18{fill:#9F9F9F;}
	.st19{fill:#687175;}
	.st20{fill:#575756;}
	.st21{fill:#8C979E;}
	.st22{fill:#6D767A;}
	.st23{fill:#4F5558;}
	.st24{fill:none;stroke:#4F5558;stroke-width:1.5223;stroke-linecap:round;stroke-linejoin:round;}
	.st25{fill:none;stroke:#4F5558;stroke-width:1.5223;stroke-linecap:round;stroke-linejoin:round;stroke-dasharray:0,3.0774;}
	.st26{fill:#BDBCBC;}
	.st27{fill:#878787;}
	.st28{fill:none;stroke:#4F5558;stroke-width:1.5223;stroke-linecap:round;stroke-linejoin:round;stroke-dasharray:0,3.0773;}
	.st29{fill:#EC662A;}
	.st30{fill:#F7A732;}
	.st31{fill:#DF872D;}
	.st32{fill:#A72833;}
	.st33{fill:#791D22;}
	.st34{fill:#7D3756;}
	.st35{fill:none;}
	.st36{fill:#7A290C;}
	.st37{fill:#E7A885;}
	.st38{fill:#433D61;}
	.st39{fill:#350600;}
</style>







<g
   inkscape:groupmode="layer"
   id="layer3"
   inkscape:label="Fond" /><g
   inkscape:groupmode="layer"
   id="layer5"
   inkscape:label="Troisieme plan" /><g
   inkscape:groupmode="layer"
   id="layer4"
   inkscape:label="Deuxieme plan" /><g
   inkscape:groupmode="layer"
   id="layer6"
   inkscape:label="Premier plan" /><g
   inkscape:groupmode="layer"
   id="layer8"
   inkscape:label="Cadre" /><g
   inkscape:groupmode="layer"
   id="layer7"
   inkscape:label="Premier premier plan"
   style="opacity:1;mix-blend-mode:multiply"><rect
     x="866.79834"
     y="1281.4012"
     class="st5"
     width="0"
     height="6.4458761"
     id="rect103319"
     style="stroke-width:0.999999" /><rect
     x="866.79834"
     y="1301.1643"
     class="st5"
     width="0"
     height="6.4458761"
     id="rect103323"
     style="stroke-width:0.999999" /><rect
     x="866.79834"
     y="1261.5004"
     class="st5"
     width="0"
     height="6.4458761"
     id="rect103335"
     style="stroke-width:0.999999" /><rect
     x="866.79834"
     y="1320.915"
     class="st5"
     width="0"
     height="6.4458761"
     id="rect103339"
     style="stroke-width:0.999999" /><rect
     x="866.79834"
     y="1340.6907"
     class="st5"
     width="0"
     height="6.4458761"
     id="rect103343"
     style="stroke-width:0.999999" /><rect
     x="866.79834"
     y="1360.4414"
     class="st5"
     width="0"
     height="6.4458761"
     id="rect103347"
     style="stroke-width:0.999999" /><rect
     x="866.79834"
     y="1380.2046"
     class="st5"
     width="0"
     height="6.4458761"
     id="rect103351"
     style="stroke-width:0.999999" /><g
     id="g90937"
     transform="matrix(1.0278346,0,0,1.0575237,-0.61612859,-9.9340377)"
     style="stroke-width:0.959165"><rect
       x="0.28751713"
       y="9.4194164"
       class="st12"
       width="105.99918"
       height="163.22897"
       id="rect103195"
       style="stroke-width:0.959163" /><rect
       x="100.79099"
       y="26.158796"
       class="st5"
       width="8.0451946"
       height="7.9748521"
       id="rect103197"
       style="stroke-width:0.959163" /><rect
       x="91.19706"
       y="38.128937"
       class="st5"
       width="17.392424"
       height="7.9748521"
       id="rect103199"
       style="stroke-width:0.959163" /><rect
       x="100.79099"
       y="50.609848"
       class="st5"
       width="8.0451946"
       height="7.9748521"
       id="rect103201"
       style="stroke-width:0.959163" /><rect
       x="91.19706"
       y="62.580002"
       class="st5"
       width="17.392424"
       height="7.9748521"
       id="rect103203"
       style="stroke-width:0.959163" /><rect
       x="100.79099"
       y="75.060913"
       class="st5"
       width="8.0451946"
       height="7.9748521"
       id="rect103205"
       style="stroke-width:0.959163" /><rect
       x="91.19706"
       y="87.015503"
       class="st5"
       width="17.392424"
       height="7.9748521"
       id="rect103207"
       style="stroke-width:0.959163" /><rect
       x="100.79099"
       y="99.511963"
       class="st5"
       width="8.0451946"
       height="7.9748521"
       id="rect103209"
       style="stroke-width:0.959163" /><rect
       x="91.19706"
       y="111.46655"
       class="st5"
       width="17.392424"
       height="7.9748521"
       id="rect103211"
       style="stroke-width:0.959163" /><rect
       x="100.79099"
       y="123.96301"
       class="st5"
       width="8.0451946"
       height="7.9748521"
       id="rect103213"
       style="stroke-width:0.959163" /><rect
       x="91.19706"
       y="135.9176"
       class="st5"
       width="17.392424"
       height="7.9748521"
       id="rect103215"
       style="stroke-width:0.959163" /><rect
       x="100.79099"
       y="148.41406"
       class="st5"
       width="8.0451946"
       height="7.9748521"
       id="rect103217"
       style="stroke-width:0.959163" /><rect
       x="91.19706"
       y="160.36865"
       class="st5"
       width="17.392424"
       height="7.9748521"
       id="rect103219"
       style="stroke-width:0.959163" /><rect
       x="77.546242"
       y="26.158796"
       class="st5"
       width="19.612732"
       height="7.9748521"
       id="rect103221"
       style="stroke-width:0.959163" /><rect
       x="67.938637"
       y="38.128937"
       class="st5"
       width="19.612732"
       height="7.9748521"
       id="rect103223"
       style="stroke-width:0.959163" /><rect
       x="77.546242"
       y="50.609848"
       class="st5"
       width="19.612732"
       height="7.9748521"
       id="rect103225"
       style="stroke-width:0.959163" /><rect
       x="67.938637"
       y="62.580002"
       class="st5"
       width="19.612732"
       height="7.9748521"
       id="rect103227"
       style="stroke-width:0.959163" /><rect
       x="77.546242"
       y="75.060913"
       class="st5"
       width="19.612732"
       height="7.9748521"
       id="rect103229"
       style="stroke-width:0.959163" /><rect
       x="67.938637"
       y="87.015503"
       class="st5"
       width="19.612732"
       height="7.9748521"
       id="rect103231"
       style="stroke-width:0.959163" /><rect
       x="77.546242"
       y="99.511963"
       class="st5"
       width="19.612732"
       height="7.9748521"
       id="rect103233"
       style="stroke-width:0.959163" /><rect
       x="67.938637"
       y="111.46655"
       class="st5"
       width="19.612732"
       height="7.9748521"
       id="rect103235"
       style="stroke-width:0.959163" /><rect
       x="77.546242"
       y="123.96301"
       class="st5"
       width="19.612732"
       height="7.9748521"
       id="rect103237"
       style="stroke-width:0.959163" /><rect
       x="67.938637"
       y="135.9176"
       class="st5"
       width="19.612732"
       height="7.9748521"
       id="rect103239"
       style="stroke-width:0.959163" /><rect
       x="77.546242"
       y="148.41406"
       class="st5"
       width="19.612732"
       height="7.9748521"
       id="rect103241"
       style="stroke-width:0.959163" /><rect
       x="67.938637"
       y="160.36865"
       class="st5"
       width="19.612732"
       height="7.9748521"
       id="rect103243"
       style="stroke-width:0.959163" /><rect
       x="54.301556"
       y="26.158796"
       class="st5"
       width="19.612732"
       height="7.9748521"
       id="rect103245"
       style="stroke-width:0.959163" /><rect
       x="44.693951"
       y="38.128937"
       class="st5"
       width="19.612732"
       height="7.9748521"
       id="rect103247"
       style="stroke-width:0.959163" /><rect
       x="54.301556"
       y="50.609848"
       class="st5"
       width="19.612732"
       height="7.9748521"
       id="rect103249"
       style="stroke-width:0.959163" /><rect
       x="44.693951"
       y="62.580002"
       class="st5"
       width="19.612732"
       height="7.9748521"
       id="rect103251"
       style="stroke-width:0.959163" /><rect
       x="54.301556"
       y="75.060913"
       class="st5"
       width="19.612732"
       height="7.9748521"
       id="rect103253"
       style="stroke-width:0.959163" /><rect
       x="44.693951"
       y="87.015503"
       class="st5"
       width="19.612732"
       height="7.9748521"
       id="rect103255"
       style="stroke-width:0.959163" /><rect
       x="54.301556"
       y="99.511963"
       class="st5"
       width="19.612732"
       height="7.9748521"
       id="rect103257"
       style="stroke-width:0.959163" /><rect
       x="44.693951"
       y="111.46655"
       class="st5"
       width="19.612732"
       height="7.9748521"
       id="rect103259"
       style="stroke-width:0.959163" /><rect
       x="54.301556"
       y="123.96301"
       class="st5"
       width="19.612732"
       height="7.9748521"
       id="rect103261"
       style="stroke-width:0.959163" /><rect
       x="44.693951"
       y="135.9176"
       class="st5"
       width="19.612732"
       height="7.9748521"
       id="rect103263"
       style="stroke-width:0.959163" /><rect
       x="54.301556"
       y="148.41406"
       class="st5"
       width="19.612732"
       height="7.9748521"
       id="rect103265"
       style="stroke-width:0.959163" /><rect
       x="44.693951"
       y="160.36865"
       class="st5"
       width="19.612732"
       height="7.9748521"
       id="rect103267"
       style="stroke-width:0.959163" /><rect
       x="31.056866"
       y="26.158796"
       class="st5"
       width="19.612732"
       height="7.9748521"
       id="rect103269"
       style="stroke-width:0.959163" /><rect
       x="21.4492"
       y="38.128937"
       class="st5"
       width="19.612732"
       height="7.9748521"
       id="rect103271"
       style="stroke-width:0.959163" /><rect
       x="31.056866"
       y="50.609848"
       class="st5"
       width="19.612732"
       height="7.9748521"
       id="rect103273"
       style="stroke-width:0.959163" /><rect
       x="21.4492"
       y="62.580002"
       class="st5"
       width="19.612732"
       height="7.9748521"
       id="rect103275"
       style="stroke-width:0.959163" /><rect
       x="31.056866"
       y="75.060913"
       class="st5"
       width="19.612732"
       height="7.9748521"
       id="rect103277"
       style="stroke-width:0.959163" /><rect
       x="21.4492"
       y="87.015503"
       class="st5"
       width="19.612732"
       height="7.9748521"
       id="rect103279"
       style="stroke-width:0.959163" /><rect
       x="31.056866"
       y="99.511963"
       class="st5"
       width="19.612732"
       height="7.9748521"
       id="rect103281"
       style="stroke-width:0.959163" /><rect
       x="21.4492"
       y="111.46655"
       class="st5"
       width="19.612732"
       height="7.9748521"
       id="rect103283"
       style="stroke-width:0.959163" /><rect
       x="31.056866"
       y="123.96301"
       class="st5"
       width="19.612732"
       height="7.9748521"
       id="rect103285"
       style="stroke-width:0.959163" /><rect
       x="21.4492"
       y="135.9176"
       class="st5"
       width="19.612732"
       height="7.9748521"
       id="rect103287"
       style="stroke-width:0.959163" /><rect
       x="31.056866"
       y="148.41406"
       class="st5"
       width="19.612732"
       height="7.9748521"
       id="rect103289"
       style="stroke-width:0.959163" /><rect
       x="21.4492"
       y="160.36865"
       class="st5"
       width="19.612732"
       height="7.9748521"
       id="rect103291"
       style="stroke-width:0.959163" /><rect
       x="7.7984424"
       y="26.158796"
       class="st5"
       width="19.612732"
       height="7.9748521"
       id="rect103293"
       style="stroke-width:0.959163" /><rect
       x="0.28776127"
       y="38.128937"
       class="st5"
       width="17.515774"
       height="7.9748521"
       id="rect103295"
       style="stroke-width:0.959163" /><rect
       x="7.7984424"
       y="50.609848"
       class="st5"
       width="19.612732"
       height="7.9748521"
       id="rect103297"
       style="stroke-width:0.959163" /><rect
       x="0.28776127"
       y="62.580002"
       class="st5"
       width="17.515774"
       height="7.9748521"
       id="rect103299"
       style="stroke-width:0.959163" /><rect
       x="7.7984424"
       y="75.060913"
       class="st5"
       width="19.612732"
       height="7.9748521"
       id="rect103301"
       style="stroke-width:0.959163" /><rect
       x="0.28776127"
       y="87.015503"
       class="st5"
       width="17.515774"
       height="7.9748521"
       id="rect103303"
       style="stroke-width:0.959163" /><rect
       x="7.7984424"
       y="99.511963"
       class="st5"
       width="19.612732"
       height="7.9748521"
       id="rect103305"
       style="stroke-width:0.959163" /><rect
       x="0.28776127"
       y="111.46655"
       class="st5"
       width="17.515774"
       height="7.9748521"
       id="rect103307"
       style="stroke-width:0.959163" /><rect
       x="7.7984424"
       y="123.96301"
       class="st5"
       width="19.612732"
       height="7.9748521"
       id="rect103309"
       style="stroke-width:0.959163" /><rect
       x="0.28776127"
       y="135.9176"
       class="st5"
       width="17.515774"
       height="7.9748521"
       id="rect103311"
       style="stroke-width:0.959163" /><rect
       x="7.7984424"
       y="148.41406"
       class="st5"
       width="19.612732"
       height="7.9748521"
       id="rect103313"
       style="stroke-width:0.959163" /><rect
       x="0.28776127"
       y="160.36865"
       class="st5"
       width="17.515774"
       height="7.9748521"
       id="rect103315"
       style="stroke-width:0.959163" /><rect
       x="0.28776127"
       y="26.05052"
       class="st5"
       width="4.3446794"
       height="7.9748521"
       id="rect103317"
       style="stroke-width:0.959163" /><rect
       x="0.28776127"
       y="50.501572"
       class="st5"
       width="4.3446794"
       height="7.9748521"
       id="rect103321"
       style="stroke-width:0.959163" /><rect
       x="91.19706"
       y="13.507536"
       class="st5"
       width="17.392424"
       height="7.9748521"
       id="rect103325"
       style="stroke-width:0.959163" /><rect
       x="67.938637"
       y="13.507536"
       class="st5"
       width="19.612732"
       height="7.9748521"
       id="rect103327"
       style="stroke-width:0.959163" /><rect
       x="44.693951"
       y="13.507536"
       class="st5"
       width="19.612732"
       height="7.9748521"
       id="rect103329"
       style="stroke-width:0.959163" /><rect
       x="21.4492"
       y="13.507536"
       class="st5"
       width="19.612732"
       height="7.9748521"
       id="rect103331"
       style="stroke-width:0.959163" /><rect
       x="0.28776127"
       y="13.507536"
       class="st5"
       width="17.515774"
       height="7.9748521"
       id="rect103333"
       style="stroke-width:0.959163" /><rect
       x="0.28776127"
       y="74.937073"
       class="st5"
       width="4.3446794"
       height="7.9748521"
       id="rect103337"
       style="stroke-width:0.959163" /><rect
       x="0.28776127"
       y="99.388123"
       class="st5"
       width="4.3446794"
       height="7.9748521"
       id="rect103341"
       style="stroke-width:0.959163" /><rect
       x="0.28776127"
       y="123.83917"
       class="st5"
       width="4.3446794"
       height="7.9748521"
       id="rect103345"
       style="stroke-width:0.959163" /><rect
       x="0.28776127"
       y="148.29022"
       class="st5"
       width="4.3446794"
       height="7.9748521"
       id="rect103349"
       style="stroke-width:0.959163" /><polygon
       class="st7"
       points="417.99,148.45 416.14,148.45 416.14,145.53 417.8,145.53 417.8,140.39 416.14,140.39 416.14,137.81 417.99,137.81 417.99,132.66 416.14,132.66 416.14,129.75 417.8,129.75 417.8,124.6 416.14,124.6 416.14,122.02 417.99,122.02 417.99,116.87 416.14,116.87 416.14,113.84 417.8,113.84 417.8,108.7 416.14,108.7 416.14,106.06 338.79,106.06 338.79,108.7 338.79,108.85 338.79,113.84 338.79,114 338.79,116.8 338.79,121.95 338.79,124.6 338.79,124.75 338.79,129.75 338.79,129.9 338.79,132.59 338.79,137.74 338.79,140.39 338.79,140.54 338.79,145.53 338.79,145.69 338.79,148.37 338.79,153.52 338.79,156.17 338.79,156.32 338.79,161.32 338.79,161.47 338.79,164.16 338.79,169.31 338.79,171.96 338.79,172.12 338.79,177.11 338.79,177.26 338.79,179.95 338.79,185.1 338.79,187.75 338.79,187.9 338.79,192.9 338.79,193.05 338.79,195.74 338.79,200.89 338.79,203.54 338.79,203.69 338.79,208.69 338.79,208.84 338.79,211.47 416.14,211.47 416.14,208.69 417.8,208.69 417.8,203.54 416.14,203.54 416.14,200.97 417.99,200.97 417.99,195.82 416.14,195.82 416.14,192.9 417.8,192.9 417.8,187.75 416.14,187.75 416.14,185.18 417.99,185.18 417.99,180.03 416.14,180.03 416.14,177.11 417.8,177.11 417.8,171.96 416.14,171.96 416.14,169.39 417.99,169.39 417.99,164.24 416.14,164.24 416.14,161.32 417.8,161.32 417.8,156.17 416.14,156.17 416.14,153.6 417.99,153.6 "
       id="polygon103801"
       transform="matrix(1.3705613,0,0,1.5485149,-245.53619,-154.81608)"
       style="opacity:0.1;mix-blend-mode:multiply;fill:#ffffff;stroke-width:0.658394" /><g
       id="g104077"
       transform="matrix(1.3705613,0,0,1.5485149,-157.03902,-154.81608)"
       style="stroke-width:0.658388">
						<rect
   x="191.66"
   y="106.09"
   class="st12"
   width="147.53999"
   height="105.41"
   id="rect103813"
   style="stroke-width:0.658388" />
						<g
   id="g104075"
   style="stroke-width:0.658388">
							<rect
   x="189.92"
   y="108.89"
   class="st5"
   width="7.7199998"
   height="5.1500001"
   id="rect103815"
   style="stroke-width:0.658388" />
							<rect
   x="189.92"
   y="116.62"
   class="st5"
   width="14.31"
   height="5.1500001"
   id="rect103817"
   style="stroke-width:0.658388" />
							<rect
   x="200.17999"
   y="108.89"
   class="st5"
   width="14.31"
   height="5.1500001"
   id="rect103819"
   style="stroke-width:0.658388" />
							<rect
   x="207.17999"
   y="116.62"
   class="st5"
   width="14.31"
   height="5.1500001"
   id="rect103821"
   style="stroke-width:0.658388" />
							<rect
   x="200.17999"
   y="124.68"
   class="st5"
   width="14.31"
   height="5.1500001"
   id="rect103823"
   style="stroke-width:0.658388" />
							<rect
   x="207.17999"
   y="132.41"
   class="st5"
   width="14.31"
   height="5.1500001"
   id="rect103825"
   style="stroke-width:0.658388" />
							<rect
   x="200.17999"
   y="140.47"
   class="st5"
   width="14.31"
   height="5.1500001"
   id="rect103827"
   style="stroke-width:0.658388" />
							<rect
   x="207.17999"
   y="148.2"
   class="st5"
   width="14.31"
   height="5.1500001"
   id="rect103829"
   style="stroke-width:0.658388" />
							<rect
   x="200.17999"
   y="156.25999"
   class="st5"
   width="14.31"
   height="5.1500001"
   id="rect103831"
   style="stroke-width:0.658388" />
							<rect
   x="207.17999"
   y="163.98"
   class="st5"
   width="14.31"
   height="5.1500001"
   id="rect103833"
   style="stroke-width:0.658388" />
							<rect
   x="200.17999"
   y="172.05"
   class="st5"
   width="14.31"
   height="5.1500001"
   id="rect103835"
   style="stroke-width:0.658388" />
							<rect
   x="207.17999"
   y="179.77"
   class="st5"
   width="14.31"
   height="5.1500001"
   id="rect103837"
   style="stroke-width:0.658388" />
							<rect
   x="200.17999"
   y="187.84"
   class="st5"
   width="14.31"
   height="5.1500001"
   id="rect103839"
   style="stroke-width:0.658388" />
							<rect
   x="207.17999"
   y="195.56"
   class="st14"
   width="14.31"
   height="5.1500001"
   id="rect103841"
   style="stroke-width:0.658388" />
							<rect
   x="200.17999"
   y="203.62"
   class="st5"
   width="14.31"
   height="5.1500001"
   id="rect103843"
   style="stroke-width:0.658388" />
							<rect
   x="217.14"
   y="108.89"
   class="st5"
   width="14.31"
   height="5.1500001"
   id="rect103845"
   style="stroke-width:0.658388" />
							<rect
   x="224.14999"
   y="116.62"
   class="st14"
   width="14.31"
   height="5.1500001"
   id="rect103847"
   style="stroke-width:0.658388" />
							<rect
   x="217.14"
   y="124.68"
   class="st5"
   width="14.31"
   height="5.1500001"
   id="rect103849"
   style="stroke-width:0.658388" />
							<rect
   x="224.14999"
   y="132.41"
   class="st5"
   width="14.31"
   height="5.1500001"
   id="rect103851"
   style="stroke-width:0.658388" />
							<rect
   x="217.14"
   y="140.47"
   class="st5"
   width="14.31"
   height="5.1500001"
   id="rect103853"
   style="stroke-width:0.658388" />
							<rect
   x="224.14999"
   y="148.2"
   class="st5"
   width="14.31"
   height="5.1500001"
   id="rect103855"
   style="stroke-width:0.658388" />
							<rect
   x="217.14"
   y="156.25999"
   class="st5"
   width="14.31"
   height="5.1500001"
   id="rect103857"
   style="stroke-width:0.658388" />
							<rect
   x="224.14999"
   y="163.98"
   class="st5"
   width="14.31"
   height="5.1500001"
   id="rect103859"
   style="stroke-width:0.658388" />
							<rect
   x="217.14"
   y="172.05"
   class="st5"
   width="14.31"
   height="5.1500001"
   id="rect103861"
   style="stroke-width:0.658388" />
							<rect
   x="224.14999"
   y="179.77"
   class="st5"
   width="14.31"
   height="5.1500001"
   id="rect103863"
   style="stroke-width:0.658388" />
							<rect
   x="217.14"
   y="187.84"
   class="st5"
   width="14.31"
   height="5.1500001"
   id="rect103865"
   style="stroke-width:0.658388" />
							<rect
   x="224.14999"
   y="195.56"
   class="st5"
   width="14.31"
   height="5.1500001"
   id="rect103867"
   style="stroke-width:0.658388" />
							<rect
   x="217.14"
   y="203.62"
   class="st5"
   width="14.31"
   height="5.1500001"
   id="rect103869"
   style="stroke-width:0.658388" />
							<rect
   x="234.10001"
   y="108.89"
   class="st5"
   width="14.31"
   height="5.1500001"
   id="rect103871"
   style="stroke-width:0.658388" />
							<rect
   x="241.11"
   y="116.62"
   class="st5"
   width="14.31"
   height="5.1500001"
   id="rect103873"
   style="stroke-width:0.658388" />
							<rect
   x="234.10001"
   y="124.68"
   class="st5"
   width="14.31"
   height="5.1500001"
   id="rect103875"
   style="stroke-width:0.658388" />
							<rect
   x="241.11"
   y="132.41"
   class="st5"
   width="14.31"
   height="5.1500001"
   id="rect103877"
   style="stroke-width:0.658388" />
							<rect
   x="234.10001"
   y="140.47"
   class="st5"
   width="14.31"
   height="5.1500001"
   id="rect103879"
   style="stroke-width:0.658388" />
							<rect
   x="241.11"
   y="148.2"
   class="st5"
   width="14.31"
   height="5.1500001"
   id="rect103881"
   style="stroke-width:0.658388" />
							<rect
   x="234.10001"
   y="156.25999"
   class="st5"
   width="14.31"
   height="5.1500001"
   id="rect103883"
   style="stroke-width:0.658388" />
							<rect
   x="241.11"
   y="163.98"
   class="st5"
   width="14.31"
   height="5.1500001"
   id="rect103885"
   style="stroke-width:0.658388" />
							<rect
   x="234.10001"
   y="172.05"
   class="st5"
   width="14.31"
   height="5.1500001"
   id="rect103887"
   style="stroke-width:0.658388" />
							<rect
   x="241.11"
   y="179.77"
   class="st5"
   width="14.31"
   height="5.1500001"
   id="rect103889"
   style="stroke-width:0.658388" />
							<rect
   x="234.10001"
   y="187.84"
   class="st5"
   width="14.31"
   height="5.1500001"
   id="rect103891"
   style="stroke-width:0.658388" />
							<rect
   x="241.11"
   y="195.56"
   class="st5"
   width="14.31"
   height="5.1500001"
   id="rect103893"
   style="stroke-width:0.658388" />
							<rect
   x="234.10001"
   y="203.62"
   class="st5"
   width="14.31"
   height="5.1500001"
   id="rect103895"
   style="stroke-width:0.658388" />
							<rect
   x="251.06"
   y="108.89"
   class="st5"
   width="14.31"
   height="5.1500001"
   id="rect103897"
   style="stroke-width:0.658388" />
							<rect
   x="258.07001"
   y="116.62"
   class="st5"
   width="14.31"
   height="5.1500001"
   id="rect103899"
   style="stroke-width:0.658388" />
							<rect
   x="251.06"
   y="124.68"
   class="st5"
   width="14.31"
   height="5.1500001"
   id="rect103901"
   style="stroke-width:0.658388" />
							<rect
   x="258.07001"
   y="132.41"
   class="st5"
   width="14.31"
   height="5.1500001"
   id="rect103903"
   style="stroke-width:0.658388" />
							<rect
   x="251.06"
   y="140.47"
   class="st5"
   width="14.31"
   height="5.1500001"
   id="rect103905"
   style="stroke-width:0.658388" />
							<rect
   x="258.07001"
   y="148.2"
   class="st5"
   width="14.31"
   height="5.1500001"
   id="rect103907"
   style="stroke-width:0.658388" />
							<rect
   x="251.06"
   y="156.25999"
   class="st5"
   width="14.31"
   height="5.1500001"
   id="rect103909"
   style="stroke-width:0.658388" />
							<rect
   x="258.07001"
   y="163.98"
   class="st5"
   width="14.31"
   height="5.1500001"
   id="rect103911"
   style="stroke-width:0.658388" />
							<rect
   x="251.06"
   y="172.05"
   class="st5"
   width="14.31"
   height="5.1500001"
   id="rect103913"
   style="stroke-width:0.658388" />
							<rect
   x="258.07001"
   y="179.77"
   class="st5"
   width="14.31"
   height="5.1500001"
   id="rect103915"
   style="stroke-width:0.658388" />
							<rect
   x="251.06"
   y="187.84"
   class="st14"
   width="14.31"
   height="5.1500001"
   id="rect103917"
   style="stroke-width:0.658388" />
							<rect
   x="258.07001"
   y="195.56"
   class="st5"
   width="14.31"
   height="5.1500001"
   id="rect103919"
   style="stroke-width:0.658388" />
							<rect
   x="251.06"
   y="203.62"
   class="st5"
   width="14.31"
   height="5.1500001"
   id="rect103921"
   style="stroke-width:0.658388" />
							<rect
   x="268.03"
   y="108.89"
   class="st5"
   width="14.31"
   height="5.1500001"
   id="rect103923"
   style="stroke-width:0.658388" />
							<rect
   x="275.03"
   y="116.62"
   class="st5"
   width="14.31"
   height="5.1500001"
   id="rect103925"
   style="stroke-width:0.658388" />
							<rect
   x="268.03"
   y="124.68"
   class="st5"
   width="14.31"
   height="5.1500001"
   id="rect103927"
   style="stroke-width:0.658388" />
							<rect
   x="275.03"
   y="132.41"
   class="st5"
   width="14.31"
   height="5.1500001"
   id="rect103929"
   style="stroke-width:0.658388" />
							<rect
   x="268.03"
   y="140.47"
   class="st5"
   width="14.31"
   height="5.1500001"
   id="rect103931"
   style="stroke-width:0.658388" />
							<rect
   x="275.03"
   y="148.2"
   class="st5"
   width="14.31"
   height="5.1500001"
   id="rect103933"
   style="stroke-width:0.658388" />
							<rect
   x="268.03"
   y="156.25999"
   class="st5"
   width="14.31"
   height="5.1500001"
   id="rect103935"
   style="stroke-width:0.658388" />
							<rect
   x="275.03"
   y="163.98"
   class="st5"
   width="14.31"
   height="5.1500001"
   id="rect103937"
   style="stroke-width:0.658388" />
							<rect
   x="268.03"
   y="172.05"
   class="st5"
   width="14.31"
   height="5.1500001"
   id="rect103939"
   style="stroke-width:0.658388" />
							<rect
   x="275.03"
   y="179.77"
   class="st14"
   width="14.31"
   height="5.1500001"
   id="rect103941"
   style="stroke-width:0.658388" />
							<rect
   x="268.03"
   y="187.84"
   class="st5"
   width="14.31"
   height="5.1500001"
   id="rect103943"
   style="stroke-width:0.658388" />
							<rect
   x="275.03"
   y="195.56"
   class="st5"
   width="14.31"
   height="5.1500001"
   id="rect103945"
   style="stroke-width:0.658388" />
							<rect
   x="268.03"
   y="203.62"
   class="st5"
   width="14.31"
   height="5.1500001"
   id="rect103947"
   style="stroke-width:0.658388" />
							<rect
   x="284.98999"
   y="108.89"
   class="st5"
   width="14.31"
   height="5.1500001"
   id="rect103949"
   style="stroke-width:0.658388" />
							<rect
   x="292"
   y="116.62"
   class="st5"
   width="14.31"
   height="5.1500001"
   id="rect103951"
   style="stroke-width:0.658388" />
							<rect
   x="284.98999"
   y="124.68"
   class="st14"
   width="14.31"
   height="5.1500001"
   id="rect103953"
   style="stroke-width:0.658388" />
							<rect
   x="292"
   y="132.41"
   class="st5"
   width="14.31"
   height="5.1500001"
   id="rect103955"
   style="stroke-width:0.658388" />
							<rect
   x="284.98999"
   y="140.47"
   class="st5"
   width="14.31"
   height="5.1500001"
   id="rect103957"
   style="stroke-width:0.658388" />
							<rect
   x="292"
   y="148.2"
   class="st5"
   width="14.31"
   height="5.1500001"
   id="rect103959"
   style="stroke-width:0.658388" />
							<rect
   x="284.98999"
   y="156.25999"
   class="st5"
   width="14.31"
   height="5.1500001"
   id="rect103961"
   style="stroke-width:0.658388" />
							<rect
   x="292"
   y="163.98"
   class="st5"
   width="14.31"
   height="5.1500001"
   id="rect103963"
   style="stroke-width:0.658388" />
							<rect
   x="284.98999"
   y="172.05"
   class="st5"
   width="14.31"
   height="5.1500001"
   id="rect103965"
   style="stroke-width:0.658388" />
							<rect
   x="292"
   y="179.77"
   class="st5"
   width="14.31"
   height="5.1500001"
   id="rect103967"
   style="stroke-width:0.658388" />
							<rect
   x="284.98999"
   y="187.84"
   class="st5"
   width="14.31"
   height="5.1500001"
   id="rect103969"
   style="stroke-width:0.658388" />
							<rect
   x="292"
   y="195.56"
   class="st5"
   width="14.31"
   height="5.1500001"
   id="rect103971"
   style="stroke-width:0.658388" />
							<rect
   x="284.98999"
   y="203.62"
   class="st5"
   width="14.31"
   height="5.1500001"
   id="rect103973"
   style="stroke-width:0.658388" />
							<rect
   x="301.95001"
   y="108.89"
   class="st5"
   width="14.31"
   height="5.1500001"
   id="rect103975"
   style="stroke-width:0.658388" />
							<rect
   x="308.95999"
   y="116.62"
   class="st5"
   width="14.31"
   height="5.1500001"
   id="rect103977"
   style="stroke-width:0.658388" />
							<rect
   x="301.95001"
   y="124.68"
   class="st5"
   width="14.31"
   height="5.1500001"
   id="rect103979"
   style="stroke-width:0.658388" />
							<rect
   x="308.95999"
   y="132.41"
   class="st5"
   width="14.31"
   height="5.1500001"
   id="rect103981"
   style="stroke-width:0.658388" />
							<rect
   x="301.95001"
   y="140.47"
   class="st5"
   width="14.31"
   height="5.1500001"
   id="rect103983"
   style="stroke-width:0.658388" />
							<rect
   x="308.95999"
   y="148.2"
   class="st5"
   width="14.31"
   height="5.1500001"
   id="rect103985"
   style="stroke-width:0.658388" />
							<rect
   x="301.95001"
   y="156.25999"
   class="st5"
   width="14.31"
   height="5.1500001"
   id="rect103987"
   style="stroke-width:0.658388" />
							<rect
   x="308.95999"
   y="163.98"
   class="st5"
   width="14.31"
   height="5.1500001"
   id="rect103989"
   style="stroke-width:0.658388" />
							<rect
   x="301.95001"
   y="172.05"
   class="st5"
   width="14.31"
   height="5.1500001"
   id="rect103991"
   style="stroke-width:0.658388" />
							<rect
   x="308.95999"
   y="179.77"
   class="st5"
   width="14.31"
   height="5.1500001"
   id="rect103993"
   style="stroke-width:0.658388" />
							<rect
   x="301.95001"
   y="187.84"
   class="st5"
   width="14.31"
   height="5.1500001"
   id="rect103995"
   style="stroke-width:0.658388" />
							<rect
   x="308.95999"
   y="195.56"
   class="st5"
   width="14.31"
   height="5.1500001"
   id="rect103997"
   style="stroke-width:0.658388" />
							<rect
   x="301.95001"
   y="203.62"
   class="st5"
   width="14.31"
   height="5.1500001"
   id="rect103999"
   style="stroke-width:0.658388" />
							<rect
   x="318.92001"
   y="108.89"
   class="st5"
   width="14.31"
   height="5.1500001"
   id="rect104001"
   style="stroke-width:0.658388" />
							<rect
   x="325.92001"
   y="116.62"
   class="st5"
   width="13.28"
   height="5.1500001"
   id="rect104003"
   style="stroke-width:0.658388" />
							<rect
   x="318.92001"
   y="124.68"
   class="st5"
   width="14.31"
   height="5.1500001"
   id="rect104005"
   style="stroke-width:0.658388" />
							<rect
   x="325.92001"
   y="132.41"
   class="st5"
   width="13.28"
   height="5.1500001"
   id="rect104007"
   style="stroke-width:0.658388" />
							<rect
   x="318.92001"
   y="140.47"
   class="st5"
   width="14.31"
   height="5.1500001"
   id="rect104009"
   style="stroke-width:0.658388" />
							<rect
   x="325.92001"
   y="148.2"
   class="st5"
   width="13.28"
   height="5.1500001"
   id="rect104011"
   style="stroke-width:0.658388" />
							<rect
   x="318.92001"
   y="156.25999"
   class="st5"
   width="14.31"
   height="5.1500001"
   id="rect104013"
   style="stroke-width:0.658388" />
							<rect
   x="325.92001"
   y="163.98"
   class="st5"
   width="13.28"
   height="5.1500001"
   id="rect104015"
   style="stroke-width:0.658388" />
							<rect
   x="318.92001"
   y="172.05"
   class="st5"
   width="14.31"
   height="5.1500001"
   id="rect104017"
   style="stroke-width:0.658388" />
							<rect
   x="325.92001"
   y="179.77"
   class="st5"
   width="13.28"
   height="5.1500001"
   id="rect104019"
   style="stroke-width:0.658388" />
							<rect
   x="318.92001"
   y="187.84"
   class="st5"
   width="14.31"
   height="5.1500001"
   id="rect104021"
   style="stroke-width:0.658388" />
							<rect
   x="325.92001"
   y="195.56"
   class="st5"
   width="13.28"
   height="5.1500001"
   id="rect104023"
   style="stroke-width:0.658388" />
							<rect
   x="318.92001"
   y="203.62"
   class="st5"
   width="14.31"
   height="5.1500001"
   id="rect104025"
   style="stroke-width:0.658388" />
							<rect
   x="189.92"
   y="124.57"
   class="st5"
   width="7.7199998"
   height="5.1500001"
   id="rect104027"
   style="stroke-width:0.658388" />
							<rect
   x="189.92"
   y="132.41"
   class="st5"
   width="14.31"
   height="5.1500001"
   id="rect104029"
   style="stroke-width:0.658388" />
							<rect
   x="189.92"
   y="140.36"
   class="st5"
   width="7.7199998"
   height="5.1500001"
   id="rect104031"
   style="stroke-width:0.658388" />
							<rect
   x="189.92"
   y="148.2"
   class="st5"
   width="14.31"
   height="5.1500001"
   id="rect104033"
   style="stroke-width:0.658388" />
							<rect
   x="189.92"
   y="156.14999"
   class="st5"
   width="7.7199998"
   height="5.1500001"
   id="rect104035"
   style="stroke-width:0.658388" />
							<rect
   x="189.92"
   y="163.98"
   class="st5"
   width="14.31"
   height="5.1500001"
   id="rect104037"
   style="stroke-width:0.658388" />
							<rect
   x="189.92"
   y="171.92999"
   class="st5"
   width="7.7199998"
   height="5.1500001"
   id="rect104039"
   style="stroke-width:0.658388" />
							<rect
   x="189.92"
   y="179.77"
   class="st5"
   width="14.31"
   height="5.1500001"
   id="rect104041"
   style="stroke-width:0.658388" />
							<rect
   x="189.92"
   y="187.72"
   class="st5"
   width="7.7199998"
   height="5.1500001"
   id="rect104043"
   style="stroke-width:0.658388" />
							<rect
   x="189.92"
   y="195.56"
   class="st5"
   width="14.31"
   height="5.1500001"
   id="rect104045"
   style="stroke-width:0.658388" />
							<rect
   x="189.92"
   y="203.50999"
   class="st5"
   width="7.7199998"
   height="5.1500001"
   id="rect104047"
   style="stroke-width:0.658388" />
							<rect
   x="335.54001"
   y="108.82"
   class="st5"
   width="3.6600001"
   height="5.1500001"
   id="rect104049"
   style="stroke-width:0.658388" />
							<rect
   x="335.54001"
   y="203.62"
   class="st5"
   width="3.6600001"
   height="5.1500001"
   id="rect104051"
   style="stroke-width:0.658388" />
							<rect
   x="339.20001"
   y="116.77"
   class="st5"
   width="0"
   height="5.1500001"
   id="rect104053"
   style="stroke-width:0.658388" />
							<rect
   x="335.54001"
   y="124.61"
   class="st5"
   width="3.6600001"
   height="5.1500001"
   id="rect104055"
   style="stroke-width:0.658388" />
							<rect
   x="339.20001"
   y="132.56"
   class="st5"
   width="0"
   height="5.1500001"
   id="rect104057"
   style="stroke-width:0.658388" />
							<rect
   x="335.54001"
   y="140.39999"
   class="st5"
   width="3.6600001"
   height="5.1500001"
   id="rect104059"
   style="stroke-width:0.658388" />
							<rect
   x="339.20001"
   y="148.35001"
   class="st5"
   width="0"
   height="5.1500001"
   id="rect104061"
   style="stroke-width:0.658388" />
							<rect
   x="335.54001"
   y="156.17999"
   class="st5"
   width="3.6600001"
   height="5.1500001"
   id="rect104063"
   style="stroke-width:0.658388" />
							<rect
   x="339.20001"
   y="164.13"
   class="st5"
   width="0"
   height="5.1500001"
   id="rect104065"
   style="stroke-width:0.658388" />
							<rect
   x="335.54001"
   y="171.97"
   class="st5"
   width="3.6600001"
   height="5.1500001"
   id="rect104067"
   style="stroke-width:0.658388" />
							<rect
   x="339.20001"
   y="179.92"
   class="st5"
   width="0"
   height="5.1500001"
   id="rect104069"
   style="stroke-width:0.658388" />
							<rect
   x="335.54001"
   y="187.75999"
   class="st5"
   width="3.6600001"
   height="5.1500001"
   id="rect104071"
   style="stroke-width:0.658388" />
							<rect
   x="339.20001"
   y="195.71001"
   class="st5"
   width="0"
   height="5.1500001"
   id="rect104073"
   style="stroke-width:0.658388" />
						</g>
					</g></g></g></svg>
